<svg width="50" height="37" viewBox="0 0 50 37" fill="none" xmlns="http://www.w3.org/2000/svg">
<path d="M46.6421 3.75816C44.3826 1.26446 41.6404 0 38.4917 0C35.6618 0 33.2628 0.990055 31.3607 2.94253C29.4708 4.88254 28.5125 7.2922 28.5125 10.1047C28.5125 12.7626 29.4805 15.131 31.3895 17.1443C33.0735 18.9204 35.1949 20.0502 37.7062 20.5106C37.2671 23.7819 34.3236 26.7428 28.94 29.3228L27.9706 29.7874L31.9453 36.9967L32.8426 36.5499C44.2274 30.8802 50 22.8673 50 12.7339C50 9.23786 48.8703 6.21809 46.6421 3.75816ZM32.8003 34.2824L30.8089 30.6708C36.7975 27.5878 39.8315 23.8817 39.8315 19.6444V18.7372L38.9141 18.6351C36.4429 18.3603 34.4765 17.4198 32.9025 15.7596C31.3399 14.1116 30.5803 12.2619 30.5803 10.1047C30.5803 7.80128 31.3243 5.91807 32.8546 4.34707C34.3725 2.78883 36.2165 2.03134 38.4918 2.03134C41.0606 2.03134 43.2214 3.038 45.0975 5.10868C47.0051 7.21448 47.9324 9.70866 47.9324 12.7338C47.9324 17.3782 46.6013 21.5712 43.9762 25.1963C41.4713 28.6551 37.7143 31.7087 32.8003 34.2824Z" fill="#EB3300"/>
<path d="M18.617 3.75356C16.3325 1.26292 13.5789 0 10.4325 0C7.59991 0 5.21172 0.991878 3.33467 2.948C1.47373 4.88724 0.530078 7.29507 0.530078 10.1047C0.530078 12.7625 1.49805 15.1309 3.40693 17.1443C5.0874 18.9166 7.1833 20.0453 9.64795 20.5078C9.21407 23.7816 6.29512 26.744 0.954688 29.3244L0 29.7855L3.87578 37L4.78194 36.5508C16.2185 30.8813 22.0173 22.8681 22.0173 12.7338C22.0172 9.23508 20.8731 6.21368 18.617 3.75356ZM4.75186 34.2789L2.81475 30.6729C8.75987 27.5888 11.7723 23.8818 11.7723 19.6443V18.7391L10.8568 18.6353C8.43633 18.3609 6.49414 17.4202 4.91973 15.7595C3.35713 14.1116 2.59766 12.2619 2.59766 10.1047C2.59766 7.79831 3.33086 5.91308 4.83897 4.3416C6.33067 2.7871 8.16045 2.03135 10.4325 2.03135C13.0039 2.03135 15.1788 3.03944 17.0809 5.11338C19.0112 7.21803 19.9496 9.71078 19.9496 12.7338C19.9496 17.3774 18.6127 21.5699 15.9757 25.1946C13.46 28.6524 9.68692 31.7056 4.75186 34.2789Z" fill="#EB3300"/>
</svg>
